<svg xmlns="http://www.w3.org/2000/svg" viewBox="0 0 128 128">
  <defs>
    <linearGradient id="bg" x1="0%" y1="0%" x2="100%" y2="100%">
      <stop offset="0%" style="stop-color:#2d3748;stop-opacity:1" />
      <stop offset="100%" style="stop-color:#1a202c;stop-opacity:1" />
    </linearGradient>
    <linearGradient id="accent" x1="0%" y1="0%" x2="100%" y2="0%">
      <stop offset="0%" style="stop-color:#48bb78;stop-opacity:1" />
      <stop offset="100%" style="stop-color:#38a169;stop-opacity:1" />
    </linearGradient>
  </defs>
  <!-- Background rounded square -->
  <rect x="8" y="8" width="112" height="112" rx="16" ry="16" fill="url(#bg)"/>
  <!-- Terminal window frame -->
  <rect x="20" y="28" width="88" height="72" rx="4" ry="4" fill="#1a202c" stroke="#4a5568" stroke-width="2"/>
  <!-- Title bar -->
  <rect x="20" y="28" width="88" height="14" rx="4" ry="4" fill="#2d3748"/>
  <rect x="20" y="38" width="88" height="4" fill="#2d3748"/>
  <!-- Window buttons -->
  <circle cx="30" cy="35" r="3" fill="#fc8181"/>
  <circle cx="40" cy="35" r="3" fill="#f6e05e"/>
  <circle cx="50" cy="35" r="3" fill="#68d391"/>
  <!-- Cursor line (blinking effect representation) -->
  <rect x="28" y="50" width="8" height="12" fill="url(#accent)"/>
  <!-- Text lines -->
  <rect x="40" y="52" width="40" height="2" rx="1" fill="#a0aec0"/>
  <rect x="40" y="56" width="24" height="2" rx="1" fill="#718096"/>
  <rect x="28" y="66" width="56" height="2" rx="1" fill="#a0aec0"/>
  <rect x="28" y="70" width="32" height="2" rx="1" fill="#718096"/>
  <rect x="28" y="80" width="48" height="2" rx="1" fill="#a0aec0"/>
  <rect x="28" y="84" width="20" height="2" rx="1" fill="#718096"/>
  <!-- Fresh text -->
  <text x="64" y="118" font-family="monospace" font-size="12" font-weight="bold" fill="#48bb78" text-anchor="middle">FRESH</text>
</svg>
